<?xml version="1.0" standalone="no"?>
<!DOCTYPE svg PUBLIC "-//W3C//DTD SVG 20010904//EN"
 "http://www.w3.org/TR/2001/REC-SVG-20010904/DTD/svg10.dtd">
<svg version="1.0" xmlns="http://www.w3.org/2000/svg"
 width="1058.000000pt" height="1058.000000pt" viewBox="0 0 1058.000000 1058.000000"
 preserveAspectRatio="xMidYMid meet">
<metadata>
Created by potrace 1.11, written by Peter Selinger 2001-2013
</metadata>
<g transform="translate(0.000000,1058.000000) scale(0.100000,-0.100000)"
fill="#000000" stroke="none">
<path d="M5817 10573 c-1 -1 -376 -4 -832 -8 -457 -3 -1055 -8 -1330 -10 -275
-2 -867 -7 -1315 -10 -448 -4 -972 -8 -1164 -9 -400 -2 -345 12 -428 -117 -25
-41 -101 -159 -168 -263 l-121 -189 47 -71 c26 -39 51 -72 56 -74 4 -2 8 -10
8 -17 0 -7 4 -15 8 -17 4 -1 35 -43 68 -93 71 -104 259 -375 271 -390 4 -5 22
-30 38 -55 17 -24 82 -119 145 -210 63 -91 123 -176 132 -190 9 -14 52 -75 95
-137 43 -62 135 -194 205 -295 70 -101 138 -199 151 -218 35 -49 229 -329 292
-420 129 -187 578 -833 601 -865 12 -17 265 -383 620 -895 40 -58 82 -118 94
-135 45 -63 272 -391 280 -404 7 -13 65 -15 386 -12 276 2 382 6 390 14 7 7
74 111 150 232 76 121 155 247 175 280 21 33 53 85 71 115 18 30 36 60 41 65
12 14 390 620 428 684 17 29 35 59 40 65 13 15 566 895 579 921 5 11 29 50 52
86 24 37 85 133 136 215 51 82 147 235 212 339 66 105 134 214 152 243 18 29
49 79 69 110 53 84 192 306 206 328 22 36 156 249 198 314 23 36 65 103 94
150 29 47 99 159 155 249 l103 165 -26 43 c-46 75 -139 225 -224 358 l-83 130
-528 0 c-290 0 -528 -1 -529 -2z m-383 -1105 c-14 -24 -251 -395 -274 -428 -9
-14 -95 -146 -190 -295 -95 -148 -194 -302 -220 -340 -26 -39 -49 -75 -51 -80
-2 -6 -43 -70 -91 -143 -49 -73 -88 -137 -88 -142 0 -4 -3 -10 -8 -12 -4 -1
-52 -73 -106 -158 -55 -85 -118 -184 -141 -220 -23 -36 -101 -156 -174 -268
-72 -112 -131 -206 -131 -208 0 -3 -5 -10 -10 -17 -6 -7 -16 -20 -23 -30 -12
-17 -18 -11 -67 60 -30 43 -79 114 -109 158 -31 45 -103 150 -161 234 -58 84
-125 181 -150 216 -25 35 -77 110 -116 167 -39 57 -194 281 -344 498 -150 217
-298 431 -328 475 -31 44 -76 109 -101 145 -24 36 -78 115 -120 175 -41 61
-78 112 -81 115 -8 7 -50 76 -50 82 0 3 57 6 128 6 245 0 1807 13 1809 15 1 1
272 3 603 5 482 2 600 0 594 -10z"/>
<path d="M9375 9358 c-88 -71 -322 -261 -519 -421 -385 -313 -539 -439 -571
-465 -11 -9 -43 -35 -70 -57 -28 -21 -52 -42 -55 -45 -3 -3 -50 -41 -105 -85
-55 -44 -111 -89 -125 -101 -14 -13 -99 -83 -190 -156 -91 -74 -286 -233 -435
-354 -148 -121 -317 -258 -375 -304 -58 -47 -110 -89 -116 -95 -6 -5 -62 -51
-125 -102 -171 -138 -728 -591 -774 -629 -22 -18 -107 -87 -190 -154 -82 -67
-159 -129 -170 -138 -11 -10 -87 -72 -170 -139 -506 -410 -490 -396 -491 -433
-8 -173 -7 -911 1 -919 8 -7 332 -261 1385 -1085 63 -50 149 -117 190 -149 41
-32 90 -70 108 -84 18 -14 176 -138 350 -274 174 -137 359 -282 411 -321 51
-40 98 -78 105 -83 6 -6 198 -156 426 -335 228 -178 458 -358 511 -399 137
-109 320 -252 599 -470 135 -106 252 -197 260 -204 8 -7 44 -35 80 -62 35 -28
73 -57 83 -66 9 -9 37 -30 61 -47 l43 -31 94 70 c52 38 103 77 114 84 11 8 94
70 185 137 l165 123 2 215 c2 201 9 1201 18 2340 2 272 6 857 10 1300 8 1068
12 1595 20 2690 l6 915 -283 226 c-156 124 -288 228 -293 232 -6 3 -82 -53
-170 -125z m-401 -2630 c-2 -260 -6 -799 -9 -1198 -13 -1830 -16 -2154 -18
-2157 -2 -1 -208 162 -458 364 -250 201 -530 427 -624 502 -93 75 -175 141
-181 146 -8 7 -628 506 -882 710 -7 5 -18 15 -25 20 -7 6 -50 41 -97 79 -47
38 -85 72 -85 76 0 4 52 49 115 100 63 52 171 139 240 195 69 56 330 267 580
470 250 203 572 463 715 579 143 116 262 213 265 216 3 3 72 59 154 125 82 66
183 148 225 182 42 34 79 62 83 63 3 0 5 -213 2 -472z"/>
<path d="M3516 5090 c-12 -14 -89 -135 -172 -268 -46 -74 -51 -83 -303 -482
-106 -168 -203 -321 -216 -340 -12 -19 -121 -190 -240 -380 -119 -190 -227
-361 -240 -380 -28 -43 -282 -445 -304 -482 -9 -14 -52 -83 -96 -152 -146
-230 -379 -599 -405 -640 -8 -13 -62 -99 -120 -190 -58 -91 -115 -183 -128
-203 -22 -37 -53 -85 -322 -509 -69 -108 -138 -219 -155 -245 -16 -27 -63
-101 -102 -164 -40 -63 -73 -118 -73 -121 0 -3 15 -29 34 -57 19 -29 91 -144
161 -257 71 -113 132 -208 138 -211 10 -7 354 -6 3227 6 828 4 1801 8 2163 9
451 1 661 6 665 13 4 6 31 48 60 94 29 46 109 169 177 273 l123 190 -90 130
c-49 72 -122 178 -162 236 -40 58 -144 209 -231 335 -87 127 -181 264 -210
305 -46 66 -459 666 -620 900 -91 132 -164 239 -214 310 -24 36 -68 99 -96
140 -28 41 -78 113 -110 160 -429 622 -582 845 -654 950 -47 69 -88 127 -92
130 -3 3 -8 10 -10 15 -4 10 -219 325 -325 475 -29 41 -107 154 -173 250
l-119 174 -377 1 c-323 0 -378 -2 -389 -15z m486 -1708 c4 -2 8 -8 8 -12 0 -5
46 -75 103 -157 56 -81 133 -193 170 -248 72 -105 219 -319 237 -345 19 -27
140 -203 206 -300 102 -149 239 -349 374 -545 68 -99 165 -240 215 -312 49
-73 123 -180 163 -239 40 -58 71 -108 69 -111 -3 -2 -540 -7 -1194 -10 -653
-2 -1358 -5 -1566 -6 -307 -2 -376 0 -372 11 3 7 33 57 68 110 35 53 90 138
122 187 69 106 421 649 510 785 118 182 160 247 337 520 97 151 187 289 198
305 20 28 109 165 237 364 l54 84 26 -39 c15 -22 30 -40 35 -42z"/>
</g>
</svg>
